<mxfile host="app.diagrams.net" modified="2022-10-21T18:14:22.818Z" agent="5.0 (Macintosh; Intel Mac OS X 10_15_6) AppleWebKit/537.36 (KHTML, like Gecko) Chrome/106.0.0.0 Safari/537.36" etag="lhsm4ye1_m2ubp4LiKCb" version="20.5.0" type="github">
  <diagram id="9C30tnvmrrzktFPR4xzl" name="Page-1">
    <mxGraphModel dx="1169" dy="779" grid="1" gridSize="10" guides="1" tooltips="1" connect="1" arrows="1" fold="1" page="1" pageScale="1" pageWidth="827" pageHeight="1169" math="0" shadow="0">
      <root>
        <mxCell id="0" />
        <mxCell id="1" parent="0" />
        <mxCell id="bFogmdQ6TIIZWMJPqKGD-111" style="edgeStyle=orthogonalEdgeStyle;rounded=0;orthogonalLoop=1;jettySize=auto;html=1;exitX=0;exitY=0;exitDx=50;exitDy=0;exitPerimeter=0;entryX=0.5;entryY=1;entryDx=0;entryDy=0;" edge="1" parent="1" source="bFogmdQ6TIIZWMJPqKGD-1" target="bFogmdQ6TIIZWMJPqKGD-110">
          <mxGeometry relative="1" as="geometry" />
        </mxCell>
        <mxCell id="bFogmdQ6TIIZWMJPqKGD-1" value="This is a recuperated electrical box&lt;br&gt;re-attached on the column" style="shape=cube;whiteSpace=wrap;html=1;boundedLbl=1;backgroundOutline=1;darkOpacity=0.05;darkOpacity2=0.1;" vertex="1" parent="1">
          <mxGeometry x="290" y="120" width="120" height="210" as="geometry" />
        </mxCell>
        <mxCell id="bFogmdQ6TIIZWMJPqKGD-3" style="edgeStyle=orthogonalEdgeStyle;rounded=0;orthogonalLoop=1;jettySize=auto;html=1;exitX=0;exitY=0.5;exitDx=0;exitDy=0;entryX=0.992;entryY=0.21;entryDx=0;entryDy=0;entryPerimeter=0;" edge="1" parent="1" source="bFogmdQ6TIIZWMJPqKGD-2" target="bFogmdQ6TIIZWMJPqKGD-1">
          <mxGeometry relative="1" as="geometry" />
        </mxCell>
        <mxCell id="bFogmdQ6TIIZWMJPqKGD-2" value="16 step sequencer&lt;br&gt;ESP32 - adapté de tdlf client" style="rounded=0;whiteSpace=wrap;html=1;" vertex="1" parent="1">
          <mxGeometry x="450" y="180" width="200" height="70" as="geometry" />
        </mxCell>
        <mxCell id="bFogmdQ6TIIZWMJPqKGD-4" value="Switch, ajoute ou enlève un step de la séquence lorsque déclenché" style="rounded=0;whiteSpace=wrap;html=1;" vertex="1" parent="1">
          <mxGeometry x="490" y="70" width="120" height="60" as="geometry" />
        </mxCell>
        <mxCell id="bFogmdQ6TIIZWMJPqKGD-5" value="" style="ellipse;whiteSpace=wrap;html=1;aspect=fixed;" vertex="1" parent="1">
          <mxGeometry x="600" y="190" width="10" height="10" as="geometry" />
        </mxCell>
        <mxCell id="bFogmdQ6TIIZWMJPqKGD-6" value="" style="ellipse;whiteSpace=wrap;html=1;aspect=fixed;" vertex="1" parent="1">
          <mxGeometry x="610" y="190" width="10" height="10" as="geometry" />
        </mxCell>
        <mxCell id="bFogmdQ6TIIZWMJPqKGD-7" value="" style="ellipse;whiteSpace=wrap;html=1;aspect=fixed;" vertex="1" parent="1">
          <mxGeometry x="460" y="190" width="10" height="10" as="geometry" />
        </mxCell>
        <mxCell id="bFogmdQ6TIIZWMJPqKGD-8" value="" style="ellipse;whiteSpace=wrap;html=1;aspect=fixed;" vertex="1" parent="1">
          <mxGeometry x="470" y="190" width="10" height="10" as="geometry" />
        </mxCell>
        <mxCell id="bFogmdQ6TIIZWMJPqKGD-9" value="" style="ellipse;whiteSpace=wrap;html=1;aspect=fixed;" vertex="1" parent="1">
          <mxGeometry x="480" y="190" width="10" height="10" as="geometry" />
        </mxCell>
        <mxCell id="bFogmdQ6TIIZWMJPqKGD-10" value="" style="ellipse;whiteSpace=wrap;html=1;aspect=fixed;" vertex="1" parent="1">
          <mxGeometry x="490" y="190" width="10" height="10" as="geometry" />
        </mxCell>
        <mxCell id="bFogmdQ6TIIZWMJPqKGD-11" value="" style="ellipse;whiteSpace=wrap;html=1;aspect=fixed;" vertex="1" parent="1">
          <mxGeometry x="500" y="190" width="10" height="10" as="geometry" />
        </mxCell>
        <mxCell id="bFogmdQ6TIIZWMJPqKGD-12" value="" style="ellipse;whiteSpace=wrap;html=1;aspect=fixed;" vertex="1" parent="1">
          <mxGeometry x="510" y="190" width="10" height="10" as="geometry" />
        </mxCell>
        <mxCell id="bFogmdQ6TIIZWMJPqKGD-22" value="" style="ellipse;whiteSpace=wrap;html=1;aspect=fixed;" vertex="1" parent="1">
          <mxGeometry x="590" y="190" width="10" height="10" as="geometry" />
        </mxCell>
        <mxCell id="bFogmdQ6TIIZWMJPqKGD-23" value="" style="ellipse;whiteSpace=wrap;html=1;aspect=fixed;" vertex="1" parent="1">
          <mxGeometry x="580" y="190" width="10" height="10" as="geometry" />
        </mxCell>
        <mxCell id="bFogmdQ6TIIZWMJPqKGD-24" value="" style="ellipse;whiteSpace=wrap;html=1;aspect=fixed;" vertex="1" parent="1">
          <mxGeometry x="570" y="190" width="10" height="10" as="geometry" />
        </mxCell>
        <mxCell id="bFogmdQ6TIIZWMJPqKGD-25" value="" style="ellipse;whiteSpace=wrap;html=1;aspect=fixed;" vertex="1" parent="1">
          <mxGeometry x="560" y="190" width="10" height="10" as="geometry" />
        </mxCell>
        <mxCell id="bFogmdQ6TIIZWMJPqKGD-26" value="" style="ellipse;whiteSpace=wrap;html=1;aspect=fixed;" vertex="1" parent="1">
          <mxGeometry x="550" y="190" width="10" height="10" as="geometry" />
        </mxCell>
        <mxCell id="bFogmdQ6TIIZWMJPqKGD-27" value="" style="ellipse;whiteSpace=wrap;html=1;aspect=fixed;" vertex="1" parent="1">
          <mxGeometry x="540" y="190" width="10" height="10" as="geometry" />
        </mxCell>
        <mxCell id="bFogmdQ6TIIZWMJPqKGD-28" value="" style="ellipse;whiteSpace=wrap;html=1;aspect=fixed;" vertex="1" parent="1">
          <mxGeometry x="530" y="190" width="10" height="10" as="geometry" />
        </mxCell>
        <mxCell id="bFogmdQ6TIIZWMJPqKGD-29" value="" style="ellipse;whiteSpace=wrap;html=1;aspect=fixed;" vertex="1" parent="1">
          <mxGeometry x="520" y="190" width="10" height="10" as="geometry" />
        </mxCell>
        <mxCell id="bFogmdQ6TIIZWMJPqKGD-38" value="" style="endArrow=classic;html=1;rounded=0;entryX=0.5;entryY=0;entryDx=0;entryDy=0;" edge="1" parent="1" source="bFogmdQ6TIIZWMJPqKGD-4" target="bFogmdQ6TIIZWMJPqKGD-2">
          <mxGeometry width="50" height="50" relative="1" as="geometry">
            <mxPoint x="550" y="290" as="sourcePoint" />
            <mxPoint x="600" y="240" as="targetPoint" />
          </mxGeometry>
        </mxCell>
        <mxCell id="bFogmdQ6TIIZWMJPqKGD-40" style="edgeStyle=orthogonalEdgeStyle;rounded=0;orthogonalLoop=1;jettySize=auto;html=1;entryX=0.996;entryY=0.793;entryDx=0;entryDy=0;entryPerimeter=0;" edge="1" parent="1" source="bFogmdQ6TIIZWMJPqKGD-39" target="bFogmdQ6TIIZWMJPqKGD-1">
          <mxGeometry relative="1" as="geometry" />
        </mxCell>
        <mxCell id="bFogmdQ6TIIZWMJPqKGD-39" value="Power supply - 5v batteries are sufficient?" style="rounded=0;whiteSpace=wrap;html=1;" vertex="1" parent="1">
          <mxGeometry x="460" y="260" width="130" height="60" as="geometry" />
        </mxCell>
        <mxCell id="bFogmdQ6TIIZWMJPqKGD-46" style="edgeStyle=orthogonalEdgeStyle;rounded=0;orthogonalLoop=1;jettySize=auto;html=1;exitX=0;exitY=0.5;exitDx=0;exitDy=0;entryX=0.679;entryY=1;entryDx=0;entryDy=0;entryPerimeter=0;" edge="1" parent="1" source="bFogmdQ6TIIZWMJPqKGD-45" target="bFogmdQ6TIIZWMJPqKGD-1">
          <mxGeometry relative="1" as="geometry" />
        </mxCell>
        <mxCell id="bFogmdQ6TIIZWMJPqKGD-91" style="edgeStyle=orthogonalEdgeStyle;rounded=0;orthogonalLoop=1;jettySize=auto;html=1;exitX=0.5;exitY=1;exitDx=0;exitDy=0;entryX=0.4;entryY=0.1;entryDx=0;entryDy=0;entryPerimeter=0;" edge="1" parent="1" source="bFogmdQ6TIIZWMJPqKGD-45" target="bFogmdQ6TIIZWMJPqKGD-90">
          <mxGeometry relative="1" as="geometry" />
        </mxCell>
        <mxCell id="bFogmdQ6TIIZWMJPqKGD-45" value="Test WiFI (with antena range extender?" style="rounded=0;whiteSpace=wrap;html=1;" vertex="1" parent="1">
          <mxGeometry x="460" y="340" width="120" height="60" as="geometry" />
        </mxCell>
        <mxCell id="bFogmdQ6TIIZWMJPqKGD-67" style="edgeStyle=orthogonalEdgeStyle;rounded=0;orthogonalLoop=1;jettySize=auto;html=1;exitX=0.5;exitY=1;exitDx=0;exitDy=0;" edge="1" parent="1" source="bFogmdQ6TIIZWMJPqKGD-47" target="bFogmdQ6TIIZWMJPqKGD-66">
          <mxGeometry relative="1" as="geometry" />
        </mxCell>
        <mxCell id="bFogmdQ6TIIZWMJPqKGD-47" value="Module server tdlf&lt;br&gt;5V power supply - receives data from the clients" style="rounded=0;whiteSpace=wrap;html=1;" vertex="1" parent="1">
          <mxGeometry x="710" y="150" width="120" height="60" as="geometry" />
        </mxCell>
        <mxCell id="bFogmdQ6TIIZWMJPqKGD-69" style="edgeStyle=orthogonalEdgeStyle;rounded=0;orthogonalLoop=1;jettySize=auto;html=1;exitX=0.5;exitY=1;exitDx=0;exitDy=0;exitPerimeter=0;entryX=0;entryY=0.5;entryDx=0;entryDy=0;" edge="1" parent="1" source="bFogmdQ6TIIZWMJPqKGD-48" target="bFogmdQ6TIIZWMJPqKGD-68">
          <mxGeometry relative="1" as="geometry" />
        </mxCell>
        <mxCell id="bFogmdQ6TIIZWMJPqKGD-48" value="Solenoide 1" style="shape=cylinder3;whiteSpace=wrap;html=1;boundedLbl=1;backgroundOutline=1;size=15;" vertex="1" parent="1">
          <mxGeometry x="915" y="470" width="60" height="80" as="geometry" />
        </mxCell>
        <mxCell id="bFogmdQ6TIIZWMJPqKGD-64" style="edgeStyle=orthogonalEdgeStyle;rounded=0;orthogonalLoop=1;jettySize=auto;html=1;exitX=0.5;exitY=1;exitDx=0;exitDy=0;entryX=0.5;entryY=0;entryDx=0;entryDy=0;" edge="1" parent="1" source="bFogmdQ6TIIZWMJPqKGD-52" target="bFogmdQ6TIIZWMJPqKGD-59">
          <mxGeometry relative="1" as="geometry" />
        </mxCell>
        <mxCell id="bFogmdQ6TIIZWMJPqKGD-52" value="Light feedback" style="ellipse;whiteSpace=wrap;html=1;" vertex="1" parent="1">
          <mxGeometry x="915" y="310" width="60" height="50" as="geometry" />
        </mxCell>
        <mxCell id="bFogmdQ6TIIZWMJPqKGD-53" style="edgeStyle=orthogonalEdgeStyle;rounded=0;orthogonalLoop=1;jettySize=auto;html=1;exitX=0.5;exitY=1;exitDx=0;exitDy=0;" edge="1" parent="1" source="bFogmdQ6TIIZWMJPqKGD-52" target="bFogmdQ6TIIZWMJPqKGD-52">
          <mxGeometry relative="1" as="geometry" />
        </mxCell>
        <mxCell id="bFogmdQ6TIIZWMJPqKGD-65" style="edgeStyle=orthogonalEdgeStyle;rounded=0;orthogonalLoop=1;jettySize=auto;html=1;exitX=0.5;exitY=1;exitDx=0;exitDy=0;entryX=0.5;entryY=0;entryDx=0;entryDy=0;entryPerimeter=0;" edge="1" parent="1" source="bFogmdQ6TIIZWMJPqKGD-59" target="bFogmdQ6TIIZWMJPqKGD-48">
          <mxGeometry relative="1" as="geometry" />
        </mxCell>
        <mxCell id="bFogmdQ6TIIZWMJPqKGD-59" value="MOSFET Driver" style="rounded=0;whiteSpace=wrap;html=1;" vertex="1" parent="1">
          <mxGeometry x="900" y="380" width="90" height="60" as="geometry" />
        </mxCell>
        <mxCell id="bFogmdQ6TIIZWMJPqKGD-63" style="edgeStyle=orthogonalEdgeStyle;rounded=0;orthogonalLoop=1;jettySize=auto;html=1;exitX=0.5;exitY=1;exitDx=0;exitDy=0;entryX=0.5;entryY=0;entryDx=0;entryDy=0;" edge="1" parent="1" source="bFogmdQ6TIIZWMJPqKGD-61" target="bFogmdQ6TIIZWMJPqKGD-52">
          <mxGeometry relative="1" as="geometry" />
        </mxCell>
        <mxCell id="bFogmdQ6TIIZWMJPqKGD-61" value="Aziz - 12V Supply + control module" style="rounded=0;whiteSpace=wrap;html=1;" vertex="1" parent="1">
          <mxGeometry x="885" y="220" width="120" height="60" as="geometry" />
        </mxCell>
        <mxCell id="bFogmdQ6TIIZWMJPqKGD-80" style="edgeStyle=orthogonalEdgeStyle;rounded=0;orthogonalLoop=1;jettySize=auto;html=1;exitX=0.5;exitY=1;exitDx=0;exitDy=0;" edge="1" parent="1" source="bFogmdQ6TIIZWMJPqKGD-66" target="bFogmdQ6TIIZWMJPqKGD-79">
          <mxGeometry relative="1" as="geometry" />
        </mxCell>
        <mxCell id="bFogmdQ6TIIZWMJPqKGD-66" value="Sends midi data on the step" style="rounded=0;whiteSpace=wrap;html=1;" vertex="1" parent="1">
          <mxGeometry x="710" y="240" width="120" height="60" as="geometry" />
        </mxCell>
        <mxCell id="bFogmdQ6TIIZWMJPqKGD-76" style="edgeStyle=orthogonalEdgeStyle;rounded=0;orthogonalLoop=1;jettySize=auto;html=1;exitX=1;exitY=0.5;exitDx=0;exitDy=0;entryX=0;entryY=0.5;entryDx=0;entryDy=0;" edge="1" parent="1" source="bFogmdQ6TIIZWMJPqKGD-68" target="bFogmdQ6TIIZWMJPqKGD-75">
          <mxGeometry relative="1" as="geometry">
            <Array as="points">
              <mxPoint x="1240" y="520" />
              <mxPoint x="1240" y="380" />
            </Array>
          </mxGeometry>
        </mxCell>
        <mxCell id="bFogmdQ6TIIZWMJPqKGD-68" value="Noise producing object !" style="shape=hexagon;perimeter=hexagonPerimeter2;whiteSpace=wrap;html=1;fixedSize=1;" vertex="1" parent="1">
          <mxGeometry x="1100" y="480" width="120" height="80" as="geometry" />
        </mxCell>
        <mxCell id="bFogmdQ6TIIZWMJPqKGD-78" style="edgeStyle=orthogonalEdgeStyle;rounded=0;orthogonalLoop=1;jettySize=auto;html=1;exitX=1;exitY=0.5;exitDx=0;exitDy=0;" edge="1" parent="1" source="bFogmdQ6TIIZWMJPqKGD-75" target="bFogmdQ6TIIZWMJPqKGD-77">
          <mxGeometry relative="1" as="geometry" />
        </mxCell>
        <mxCell id="bFogmdQ6TIIZWMJPqKGD-108" style="edgeStyle=orthogonalEdgeStyle;rounded=0;orthogonalLoop=1;jettySize=auto;html=1;exitX=1;exitY=0.5;exitDx=0;exitDy=0;" edge="1" parent="1" source="bFogmdQ6TIIZWMJPqKGD-75" target="bFogmdQ6TIIZWMJPqKGD-107">
          <mxGeometry relative="1" as="geometry" />
        </mxCell>
        <mxCell id="bFogmdQ6TIIZWMJPqKGD-75" value="&lt;meta charset=&quot;utf-8&quot;&gt;&lt;span style=&quot;color: rgb(0, 0, 0); font-family: Helvetica; font-size: 12px; font-style: normal; font-variant-ligatures: normal; font-variant-caps: normal; font-weight: 400; letter-spacing: normal; orphans: 2; text-align: center; text-indent: 0px; text-transform: none; widows: 2; word-spacing: 0px; -webkit-text-stroke-width: 0px; background-color: rgb(248, 249, 250); text-decoration-thickness: initial; text-decoration-style: initial; text-decoration-color: initial; float: none; display: inline !important;&quot;&gt;Audio&lt;/span&gt;&lt;br style=&quot;color: rgb(0, 0, 0); font-family: Helvetica; font-size: 12px; font-style: normal; font-variant-ligatures: normal; font-variant-caps: normal; font-weight: 400; letter-spacing: normal; orphans: 2; text-align: center; text-indent: 0px; text-transform: none; widows: 2; word-spacing: 0px; -webkit-text-stroke-width: 0px; background-color: rgb(248, 249, 250); text-decoration-thickness: initial; text-decoration-style: initial; text-decoration-color: initial;&quot;&gt;&lt;span style=&quot;color: rgb(0, 0, 0); font-family: Helvetica; font-size: 12px; font-style: normal; font-variant-ligatures: normal; font-variant-caps: normal; font-weight: 400; letter-spacing: normal; orphans: 2; text-align: center; text-indent: 0px; text-transform: none; widows: 2; word-spacing: 0px; -webkit-text-stroke-width: 0px; background-color: rgb(248, 249, 250); text-decoration-thickness: initial; text-decoration-style: initial; text-decoration-color: initial; float: none; display: inline !important;&quot;&gt;Micro contact&lt;/span&gt;" style="shape=parallelogram;perimeter=parallelogramPerimeter;whiteSpace=wrap;html=1;fixedSize=1;" vertex="1" parent="1">
          <mxGeometry x="1181" y="350" width="120" height="60" as="geometry" />
        </mxCell>
        <mxCell id="bFogmdQ6TIIZWMJPqKGD-89" style="edgeStyle=orthogonalEdgeStyle;rounded=0;orthogonalLoop=1;jettySize=auto;html=1;exitX=0.5;exitY=0;exitDx=0;exitDy=0;entryX=0.476;entryY=0.959;entryDx=0;entryDy=0;entryPerimeter=0;" edge="1" parent="1" source="bFogmdQ6TIIZWMJPqKGD-77" target="bFogmdQ6TIIZWMJPqKGD-88">
          <mxGeometry relative="1" as="geometry" />
        </mxCell>
        <mxCell id="bFogmdQ6TIIZWMJPqKGD-77" value="Mixer" style="shape=parallelogram;perimeter=parallelogramPerimeter;whiteSpace=wrap;html=1;fixedSize=1;" vertex="1" parent="1">
          <mxGeometry x="1210" y="230" width="120" height="60" as="geometry" />
        </mxCell>
        <mxCell id="bFogmdQ6TIIZWMJPqKGD-79" value="Midi out" style="triangle;whiteSpace=wrap;html=1;direction=south;" vertex="1" parent="1">
          <mxGeometry x="730" y="330" width="80" height="60" as="geometry" />
        </mxCell>
        <mxCell id="bFogmdQ6TIIZWMJPqKGD-82" style="edgeStyle=orthogonalEdgeStyle;rounded=0;orthogonalLoop=1;jettySize=auto;html=1;exitX=0;exitY=0.5;exitDx=0;exitDy=0;" edge="1" parent="1" source="bFogmdQ6TIIZWMJPqKGD-81" target="bFogmdQ6TIIZWMJPqKGD-61">
          <mxGeometry relative="1" as="geometry" />
        </mxCell>
        <mxCell id="bFogmdQ6TIIZWMJPqKGD-102" style="edgeStyle=orthogonalEdgeStyle;rounded=0;orthogonalLoop=1;jettySize=auto;html=1;exitX=0.5;exitY=1;exitDx=0;exitDy=0;" edge="1" parent="1" source="bFogmdQ6TIIZWMJPqKGD-81" target="bFogmdQ6TIIZWMJPqKGD-98">
          <mxGeometry relative="1" as="geometry" />
        </mxCell>
        <mxCell id="bFogmdQ6TIIZWMJPqKGD-81" value="Midi in" style="triangle;whiteSpace=wrap;html=1;direction=north;" vertex="1" parent="1">
          <mxGeometry x="905" y="130" width="80" height="60" as="geometry" />
        </mxCell>
        <mxCell id="bFogmdQ6TIIZWMJPqKGD-85" value="" style="endArrow=classic;html=1;rounded=0;exitX=0.9;exitY=0.46;exitDx=0;exitDy=0;exitPerimeter=0;entryX=1;entryY=0.5;entryDx=0;entryDy=0;" edge="1" parent="1" source="bFogmdQ6TIIZWMJPqKGD-79" target="bFogmdQ6TIIZWMJPqKGD-81">
          <mxGeometry width="50" height="50" relative="1" as="geometry">
            <mxPoint x="950" y="360" as="sourcePoint" />
            <mxPoint x="1000" y="310" as="targetPoint" />
            <Array as="points">
              <mxPoint x="770" y="410" />
              <mxPoint x="850" y="410" />
              <mxPoint x="860" y="130" />
              <mxPoint x="860" y="90" />
              <mxPoint x="950" y="90" />
            </Array>
          </mxGeometry>
        </mxCell>
        <mxCell id="bFogmdQ6TIIZWMJPqKGD-87" style="edgeStyle=orthogonalEdgeStyle;rounded=0;orthogonalLoop=1;jettySize=auto;html=1;exitX=0.55;exitY=0.95;exitDx=0;exitDy=0;exitPerimeter=0;entryX=0.5;entryY=0;entryDx=0;entryDy=0;" edge="1" parent="1" source="bFogmdQ6TIIZWMJPqKGD-86" target="bFogmdQ6TIIZWMJPqKGD-47">
          <mxGeometry relative="1" as="geometry" />
        </mxCell>
        <mxCell id="bFogmdQ6TIIZWMJPqKGD-86" value="Wifi / test the hell out/!!" style="ellipse;shape=cloud;whiteSpace=wrap;html=1;" vertex="1" parent="1">
          <mxGeometry x="707" y="60" width="120" height="80" as="geometry" />
        </mxCell>
        <mxCell id="bFogmdQ6TIIZWMJPqKGD-88" value="Speaker! Find a pair of these / battery powered?" style="shape=or;whiteSpace=wrap;html=1;" vertex="1" parent="1">
          <mxGeometry x="1250" y="110" width="60" height="80" as="geometry" />
        </mxCell>
        <mxCell id="bFogmdQ6TIIZWMJPqKGD-90" value="Test this!! Patrick &lt;br&gt;has&lt;br&gt;antenas&amp;nbsp;" style="ellipse;shape=cloud;whiteSpace=wrap;html=1;" vertex="1" parent="1">
          <mxGeometry x="455" y="430" width="120" height="80" as="geometry" />
        </mxCell>
        <mxCell id="bFogmdQ6TIIZWMJPqKGD-94" style="edgeStyle=orthogonalEdgeStyle;rounded=0;orthogonalLoop=1;jettySize=auto;html=1;exitX=0;exitY=0;exitDx=80;exitDy=65;exitPerimeter=0;entryX=0;entryY=0.5;entryDx=0;entryDy=0;entryPerimeter=0;" edge="1" parent="1" source="bFogmdQ6TIIZWMJPqKGD-93" target="bFogmdQ6TIIZWMJPqKGD-48">
          <mxGeometry relative="1" as="geometry" />
        </mxCell>
        <mxCell id="bFogmdQ6TIIZWMJPqKGD-93" value="4-50 of these :)" style="shape=note;whiteSpace=wrap;html=1;backgroundOutline=1;darkOpacity=0.05;" vertex="1" parent="1">
          <mxGeometry x="790" y="480" width="80" height="100" as="geometry" />
        </mxCell>
        <mxCell id="bFogmdQ6TIIZWMJPqKGD-105" style="edgeStyle=orthogonalEdgeStyle;rounded=0;orthogonalLoop=1;jettySize=auto;html=1;exitX=0;exitY=0.5;exitDx=0;exitDy=0;entryX=0.5;entryY=0;entryDx=0;entryDy=0;" edge="1" parent="1" source="bFogmdQ6TIIZWMJPqKGD-98" target="bFogmdQ6TIIZWMJPqKGD-104">
          <mxGeometry relative="1" as="geometry" />
        </mxCell>
        <mxCell id="bFogmdQ6TIIZWMJPqKGD-98" value="Midi in" style="triangle;whiteSpace=wrap;html=1;direction=north;" vertex="1" parent="1">
          <mxGeometry x="1045" y="130" width="80" height="60" as="geometry" />
        </mxCell>
        <mxCell id="bFogmdQ6TIIZWMJPqKGD-103" value="This is a midi splitter" style="shape=note;whiteSpace=wrap;html=1;backgroundOutline=1;darkOpacity=0.05;" vertex="1" parent="1">
          <mxGeometry x="960" y="50" width="80" height="100" as="geometry" />
        </mxCell>
        <mxCell id="bFogmdQ6TIIZWMJPqKGD-106" style="edgeStyle=orthogonalEdgeStyle;rounded=0;orthogonalLoop=1;jettySize=auto;html=1;exitX=1;exitY=0.5;exitDx=0;exitDy=0;entryX=0;entryY=0.25;entryDx=0;entryDy=0;" edge="1" parent="1" source="bFogmdQ6TIIZWMJPqKGD-104" target="bFogmdQ6TIIZWMJPqKGD-77">
          <mxGeometry relative="1" as="geometry" />
        </mxCell>
        <mxCell id="bFogmdQ6TIIZWMJPqKGD-104" value="Drum / sampler" style="rounded=0;whiteSpace=wrap;html=1;" vertex="1" parent="1">
          <mxGeometry x="1040" y="220" width="120" height="60" as="geometry" />
        </mxCell>
        <mxCell id="bFogmdQ6TIIZWMJPqKGD-107" value="Since the solenoid noise will be too subtle normally" style="shape=card;whiteSpace=wrap;html=1;" vertex="1" parent="1">
          <mxGeometry x="1301" y="320" width="80" height="100" as="geometry" />
        </mxCell>
        <mxCell id="bFogmdQ6TIIZWMJPqKGD-110" value="Aziz controlled light strip placed on the column, lights when the beat has an active step" style="rounded=1;whiteSpace=wrap;html=1;" vertex="1" parent="1">
          <mxGeometry x="280" y="20" width="120" height="80" as="geometry" />
        </mxCell>
      </root>
    </mxGraphModel>
  </diagram>
</mxfile>
